<?xml version="1.0" standalone="no"?>
<!DOCTYPE svg PUBLIC "-//W3C//DTD SVG 20010904//EN"
 "http://www.w3.org/TR/2001/REC-SVG-20010904/DTD/svg10.dtd">
<svg version="1.0" xmlns="http://www.w3.org/2000/svg"
 width="512.000000pt" height="512.000000pt" viewBox="0 0 512.000000 512.000000"
 preserveAspectRatio="xMidYMid meet">
<metadata>
Created by potrace 1.11, written by Peter Selinger 2001-2013
</metadata>
<g transform="translate(0.000000,512.000000) scale(0.100000,-0.100000)"
fill="#000000" stroke="none">
<path d="M3805 4103 c-16 -2 -52 -8 -80 -14 -27 -6 -59 -12 -71 -15 -103 -20
-253 -88 -379 -172 -227 -151 -399 -377 -504 -665 -35 -94 -85 -284 -95 -357
-3 -25 -8 -56 -11 -70 -28 -141 -25 -584 5 -775 17 -110 21 -130 46 -229 92
-368 262 -646 506 -830 150 -112 276 -166 493 -211 17 -4 96 -9 177 -12 381
-14 692 84 991 314 l57 44 0 670 c0 528 -3 669 -12 670 -19 0 -975 0 -1028 0
l-45 -1 0 -240 c0 -207 2 -240 15 -241 8 0 130 -1 270 -2 l255 -2 0 -300 0
-299 -40 -27 c-130 -90 -403 -129 -560 -81 -73 22 -165 76 -222 130 -135 127
-249 366 -297 622 -21 118 -25 142 -32 250 -59 801 202 1336 665 1364 209 12
439 -139 526 -344 30 -70 53 -98 107 -129 l49 -28 172 174 c95 96 175 180 179
187 11 20 -120 202 -209 292 -169 169 -379 280 -602 319 -76 14 -250 18 -326
8z"/>
<path d="M289 3998 c0 -18 -1 -735 -1 -1593 l-1 -1560 1034 -3 1034 -2 0 245
0 245 -35 1 c-19 0 -359 1 -755 2 l-720 2 0 455 0 455 610 2 c336 1 619 2 630
2 20 1 20 8 20 251 l1 250 -628 0 c-345 0 -629 3 -629 8 -1 4 -2 179 -3 390
-1 333 1 383 14 386 8 2 347 4 753 4 406 0 741 3 745 7 4 3 7 114 7 246 l0
239 -1037 0 -1038 0 -1 -32z"/>
</g>
</svg>
